<?xml version="1.0" standalone="no"?>
<!DOCTYPE svg PUBLIC "-//W3C//DTD SVG 20010904//EN"
 "http://www.w3.org/TR/2001/REC-SVG-20010904/DTD/svg10.dtd">
<svg version="1.0" xmlns="http://www.w3.org/2000/svg"
 width="538.000000pt" height="538.000000pt" viewBox="0 0 538.000000 538.000000"
 preserveAspectRatio="xMidYMid meet">
<metadata>
Created by potrace 1.14, written by Peter Selinger 2001-2017
</metadata>
<g transform="translate(0.000000,538.000000) scale(0.100000,-0.100000)"
fill="#000000" stroke="none">
<path d="M503 5356 l-28 -24 0 -1849 c-1 -1151 3 -1860 9 -1880 6 -21 32 -52
70 -85 34 -29 63 -55 66 -58 3 -3 68 -59 145 -125 77 -65 142 -122 145 -125 3
-3 70 -61 150 -130 80 -69 156 -135 170 -146 14 -12 81 -70 150 -130 69 -59
152 -131 185 -159 56 -49 377 -326 509 -440 76 -65 82 -70 156 -135 87 -77
118 -87 158 -50 22 21 22 24 22 351 0 190 -4 338 -10 348 -5 10 -44 48 -87 85
-43 38 -91 80 -108 95 -16 15 -111 96 -210 181 -99 85 -182 157 -185 160 -3 3
-102 89 -220 190 -118 101 -217 187 -220 190 -3 3 -61 53 -130 112 -69 59
-132 118 -140 130 -12 20 -14 215 -15 1433 -1 1478 -2 1452 40 1469 9 3 281 6
605 6 l588 0 30 25 29 25 1 242 c0 139 -4 254 -9 269 -6 15 -22 31 -35 38 -18
8 -275 11 -914 11 l-889 0 -28 -24z"/>
<path d="M3045 5355 c-14 -13 -25 -32 -26 -42 -1 -25 -1 -432 0 -466 1 -17 12
-38 27 -52 l27 -25 583 0 c320 0 590 -3 599 -6 42 -17 41 9 39 -1459 -1 -770
-2 -1408 -3 -1418 -1 -22 -62 -81 -231 -227 -73 -63 -138 -120 -144 -125 -6
-6 -64 -57 -129 -113 -65 -57 -133 -116 -150 -131 -18 -16 -104 -91 -192 -167
-379 -328 -445 -387 -451 -407 -12 -38 -7 -663 5 -686 14 -26 55 -37 84 -23
12 5 85 65 162 132 77 68 166 146 199 174 32 28 64 56 70 61 6 6 42 37 81 70
75 64 73 63 131 115 22 19 68 60 104 90 36 30 70 60 75 66 6 6 59 53 120 105
60 52 128 110 150 130 22 20 56 50 75 65 19 16 37 31 40 34 3 3 39 35 80 70
41 36 77 67 80 70 3 3 91 80 195 170 209 181 254 224 256 249 1 9 2 844 3
1856 2 1957 4 1879 -43 1905 -13 7 -317 10 -906 10 l-886 0 -24 -25z"/>
<path d="M2948 4022 c-12 -8 -57 -75 -98 -150 -79 -145 -230 -417 -272 -492
-14 -25 -106 -191 -205 -370 -99 -179 -256 -462 -349 -630 -93 -167 -172 -312
-176 -321 -3 -9 -1 -25 7 -36 12 -17 30 -18 328 -18 237 0 318 4 330 13 13 11
113 186 228 397 18 33 43 77 56 97 13 21 23 40 23 43 0 3 32 62 72 133 66 117
542 977 611 1102 17 30 47 86 69 123 40 73 46 98 26 115 -8 6 -130 9 -320 9
-248 0 -311 -3 -330 -15z"/>
</g>
</svg>
