<?xml version="1.0" encoding="utf-8"?>
<!-- Generator: Adobe Illustrator 26.0.3, SVG Export Plug-In . SVG Version: 6.00 Build 0)  -->
<svg version="1.1" id="Warstwa_1" xmlns="http://www.w3.org/2000/svg" xmlns:xlink="http://www.w3.org/1999/xlink" x="0px" y="0px"
	 viewBox="0 0 600 200" style="enable-background:new 0 0 600 200;" xml:space="preserve">
<style type="text/css">
	.st0{fill:#00CC33;}
	.st1{fill:#FFFFFF;}
</style>
<path class="st0" d="M239.19,105.77c0,7.94-5.35,15.78-22.7,15.78s-22.7-7.84-22.7-15.78V73.1c0-7.94,5.35-15.78,22.7-15.78
	s22.7,7.84,22.7,15.78v4.25c0,1.94-0.65,2.77-2.58,2.77h-9.51c-1.94,0-2.68-0.83-2.68-2.77v-1.57c0-4.25-3.23-6-7.75-6
	c-4.52,0-7.66,1.75-7.66,6v27.32c0,4.25,3.14,6,7.66,6c4.52,0,7.75-1.75,7.75-6v-2.95c0-1.94,0.74-2.77,2.68-2.77h9.51
	c1.94,0,2.58,0.83,2.58,2.77V105.77z"/>
<path class="st0" d="M252.48,120.81c-1.94,0-2.68-0.83-2.68-2.77V60.83c0-1.94,0.74-2.77,2.68-2.77h31.56
	c1.94,0,2.77,0.65,2.77,2.58v7.2c0,1.94-0.83,2.68-2.77,2.68h-19.01v12h17.53c1.94,0,2.77,0.65,2.77,2.58v6.74
	c0,1.94-0.83,2.68-2.77,2.68h-17.53v13.84h19.93c1.94,0,2.77,0.65,2.77,2.58v7.2c0,1.94-0.83,2.68-2.77,2.68H252.48z"/>
<path class="st0" d="M334.79,95.34l9.04,22.7c0.65,1.66-0.55,2.77-2.58,2.77h-9.97c-1.75,0-2.12-1.48-2.68-2.77l-8.12-20.4h-6.92
	v20.4c0,1.94-0.65,2.77-2.58,2.77h-9.97c-1.94,0-2.68-0.83-2.68-2.77V60.83c0-1.94,0.74-2.77,2.68-2.77h19.93
	c17.35,0,23.44,7.84,23.44,15.78v8.03C344.39,87.13,341.71,92.39,334.79,95.34z M313.57,70.52v14.67h7.38c4.52,0,8.4-1.75,8.4-6
	v-2.68c0-4.25-3.88-6-8.4-6H313.57z"/>
<path class="st0" d="M392.28,58.06c1.94,0,2.77,0.65,2.77,2.58v7.2c0,1.94-0.83,2.68-2.77,2.68h-11.81v47.53
	c0,1.94-0.65,2.77-2.58,2.77h-9.97c-1.94,0-2.68-0.83-2.68-2.77V70.52h-11.81c-1.94,0-2.77-0.74-2.77-2.68v-7.2
	c0-1.94,0.83-2.58,2.77-2.58H392.28z"/>
<path class="st1" d="M409.91,118.14c0,1.94-0.65,2.68-2.58,2.68h-9.78c-1.94,0-2.68-0.74-2.68-2.68v-7.66
	c0-1.94,0.74-2.77,2.68-2.77h9.78c1.94,0,2.58,0.83,2.58,2.77V118.14z"/>
<path class="st1" d="M469.06,118.05c0,1.94-0.65,2.77-2.58,2.77h-9.04c-1.38,0-1.94-0.37-2.49-1.29l-14.77-24.55
	c-1.57-2.49-2.95-5.72-3.97-8.31v31.38c0,1.94-0.65,2.77-2.58,2.77h-9.04c-1.94,0-2.68-0.83-2.68-2.77V60.83
	c0-1.94,0.74-2.77,2.68-2.77h9.04c1.2,0,1.94,0.37,2.31,1.11l15.6,26.12c1.11,1.94,2.31,4.71,3.23,6.92V60.83
	c0-1.94,0.74-2.77,2.68-2.77h9.04c1.94,0,2.58,0.83,2.58,2.77V118.05z"/>
<path class="st1" d="M524.52,85.67c1.94,0,2.77,0.65,2.77,2.58v17.52c0,7.94-5.35,15.78-22.7,15.78c-17.35,0-22.7-7.84-22.7-15.78
	V73.1c0-7.94,5.35-15.78,22.7-15.78c17.35,0,22.7,7.84,22.7,15.78v3.32c0,1.94-0.65,2.77-2.58,2.77h-9.51
	c-1.94,0-2.68-0.83-2.68-2.77v-0.65c0-4.25-3.23-6-7.75-6c-4.52,0-7.66,1.75-7.66,6v27.32c0,4.25,3.14,6,7.66,6
	c4.52,0,7.75-1.75,7.75-6v-4.97h-5.57c-1.94,0-2.77-0.74-2.77-2.68v-7.2c0-1.94,0.83-2.58,2.77-2.58H524.52z"/>
<path class="st1" d="M538.89,73.1c0-7.94,6.18-15.78,23.53-15.78s23.62,7.84,23.62,15.78v32.67c0,7.94-6.28,15.78-23.62,15.78
	s-23.53-7.84-23.53-15.78V73.1z M570.82,75.78c0-4.25-3.88-6-8.4-6c-4.52,0-8.31,1.75-8.31,6v27.32c0,4.25,3.78,6,8.31,6
	c4.52,0,8.4-1.75,8.4-6V75.78z"/>
<path class="st1" d="M72.83,160.08l-38.5-33.24c-0.85-0.74-1.34-1.81-1.34-2.94V37.96c0-1.25,1.01-2.25,2.25-2.25h35.2
	c1.41,0,2.55-1.14,2.55-2.55V19.48c0-1.41-1.14-2.55-2.55-2.55H16.76c-1.41,0-2.55,1.14-2.55,2.55V132.5c0,1.13,0.49,2.2,1.34,2.94
	l54.88,47.38c1.4,1.21,3.57,0.21,3.57-1.63v-18.56C73.99,161.65,73.57,160.72,72.83,160.08z"/>
<path class="st1" d="M92.89,19.48v13.67c0,1.41,1.14,2.55,2.55,2.55h34.68c1.25,0,2.25,1.01,2.25,2.25v85.98
	c0,1.12-0.49,2.19-1.33,2.93l-38.01,33.1c-0.73,0.64-1.15,1.56-1.15,2.54v18.63c0,1.85,2.18,2.84,3.57,1.63l54.37-47.35
	c0.85-0.74,1.33-1.8,1.33-2.93v-113c0-1.41-1.14-2.55-2.55-2.55H95.45C94.04,16.93,92.89,18.07,92.89,19.48z"/>
<path class="st0" d="M77.84,120.13l33.21-59.94c0.43-0.77-0.13-1.72-1.02-1.72H91.89c-0.82,0-1.58,0.45-1.98,1.17L56.7,119.57
	c-0.43,0.77,0.13,1.72,1.02,1.72h18.15C76.69,121.3,77.44,120.85,77.84,120.13z"/>
</svg>
